<mxfile host="app.diagrams.net" modified="2024-01-15T02:49:09.027Z" agent="Mozilla/5.0 (Windows NT 10.0; Win64; x64) AppleWebKit/537.36 (KHTML, like Gecko) Chrome/120.0.0.0 Safari/537.36" etag="DHTCHcwqk0BGVORnl21G" version="22.1.17" type="device">
  <diagram name="Page-1" id="wuMi6SUmhR2tVSwaplhr">
    <mxGraphModel dx="880" dy="434" grid="1" gridSize="10" guides="1" tooltips="1" connect="1" arrows="1" fold="1" page="1" pageScale="1" pageWidth="850" pageHeight="1100" math="0" shadow="0">
      <root>
        <mxCell id="0" />
        <mxCell id="1" parent="0" />
        <mxCell id="Nk4EHDbx-ISrzMo0_q-E-1" value="START" style="ellipse;whiteSpace=wrap;html=1;" vertex="1" parent="1">
          <mxGeometry x="360" y="190" width="120" height="80" as="geometry" />
        </mxCell>
        <mxCell id="Nk4EHDbx-ISrzMo0_q-E-2" value="" style="endArrow=classic;html=1;rounded=0;exitX=0.5;exitY=1;exitDx=0;exitDy=0;" edge="1" parent="1" source="Nk4EHDbx-ISrzMo0_q-E-1" target="Nk4EHDbx-ISrzMo0_q-E-3">
          <mxGeometry width="50" height="50" relative="1" as="geometry">
            <mxPoint x="400" y="410" as="sourcePoint" />
            <mxPoint x="420" y="340" as="targetPoint" />
          </mxGeometry>
        </mxCell>
        <mxCell id="Nk4EHDbx-ISrzMo0_q-E-3" value="BUKA WOKWI" style="rounded=0;whiteSpace=wrap;html=1;" vertex="1" parent="1">
          <mxGeometry x="360" y="310" width="120" height="60" as="geometry" />
        </mxCell>
        <mxCell id="Nk4EHDbx-ISrzMo0_q-E-4" value="" style="endArrow=classic;html=1;rounded=0;exitX=0.5;exitY=1;exitDx=0;exitDy=0;" edge="1" parent="1" source="Nk4EHDbx-ISrzMo0_q-E-3">
          <mxGeometry width="50" height="50" relative="1" as="geometry">
            <mxPoint x="400" y="410" as="sourcePoint" />
            <mxPoint x="420" y="410" as="targetPoint" />
          </mxGeometry>
        </mxCell>
        <mxCell id="Nk4EHDbx-ISrzMo0_q-E-5" value="CEK TOMBOL" style="rounded=0;whiteSpace=wrap;html=1;" vertex="1" parent="1">
          <mxGeometry x="360" y="410" width="120" height="60" as="geometry" />
        </mxCell>
        <mxCell id="Nk4EHDbx-ISrzMo0_q-E-6" value="" style="endArrow=classic;html=1;rounded=0;exitX=0.5;exitY=1;exitDx=0;exitDy=0;" edge="1" parent="1" source="Nk4EHDbx-ISrzMo0_q-E-5">
          <mxGeometry width="50" height="50" relative="1" as="geometry">
            <mxPoint x="400" y="410" as="sourcePoint" />
            <mxPoint x="420" y="500" as="targetPoint" />
          </mxGeometry>
        </mxCell>
        <mxCell id="Nk4EHDbx-ISrzMo0_q-E-7" value="" style="endArrow=classic;html=1;rounded=0;exitX=1;exitY=0.5;exitDx=0;exitDy=0;" edge="1" parent="1" source="Nk4EHDbx-ISrzMo0_q-E-10">
          <mxGeometry width="50" height="50" relative="1" as="geometry">
            <mxPoint x="500" y="540" as="sourcePoint" />
            <mxPoint x="530" y="540" as="targetPoint" />
          </mxGeometry>
        </mxCell>
        <mxCell id="Nk4EHDbx-ISrzMo0_q-E-8" value="" style="endArrow=classic;html=1;rounded=0;exitX=0.5;exitY=1;exitDx=0;exitDy=0;" edge="1" parent="1" target="Nk4EHDbx-ISrzMo0_q-E-14">
          <mxGeometry width="50" height="50" relative="1" as="geometry">
            <mxPoint x="419.5" y="580" as="sourcePoint" />
            <mxPoint x="419.5" y="620" as="targetPoint" />
          </mxGeometry>
        </mxCell>
        <mxCell id="Nk4EHDbx-ISrzMo0_q-E-9" value="" style="endArrow=classic;html=1;rounded=0;exitX=0.5;exitY=1;exitDx=0;exitDy=0;entryX=1;entryY=0.5;entryDx=0;entryDy=0;" edge="1" parent="1" target="Nk4EHDbx-ISrzMo0_q-E-11">
          <mxGeometry width="50" height="50" relative="1" as="geometry">
            <mxPoint x="355" y="539.5" as="sourcePoint" />
            <mxPoint x="305" y="539.5" as="targetPoint" />
          </mxGeometry>
        </mxCell>
        <mxCell id="Nk4EHDbx-ISrzMo0_q-E-10" value="ON/OFF" style="rhombus;whiteSpace=wrap;html=1;" vertex="1" parent="1">
          <mxGeometry x="355" y="500" width="130" height="80" as="geometry" />
        </mxCell>
        <mxCell id="Nk4EHDbx-ISrzMo0_q-E-11" value="ON HIDUP" style="rounded=0;whiteSpace=wrap;html=1;" vertex="1" parent="1">
          <mxGeometry x="180" y="510" width="120" height="60" as="geometry" />
        </mxCell>
        <mxCell id="Nk4EHDbx-ISrzMo0_q-E-12" value="OFF MATI" style="rounded=0;whiteSpace=wrap;html=1;" vertex="1" parent="1">
          <mxGeometry x="530" y="510" width="120" height="60" as="geometry" />
        </mxCell>
        <mxCell id="Nk4EHDbx-ISrzMo0_q-E-14" value="FINISH" style="ellipse;whiteSpace=wrap;html=1;" vertex="1" parent="1">
          <mxGeometry x="360" y="620" width="120" height="80" as="geometry" />
        </mxCell>
      </root>
    </mxGraphModel>
  </diagram>
</mxfile>
